<svg xmlns="http://www.w3.org/2000/svg" xmlns:xlink="http://www.w3.org/1999/xlink" viewBox="0 0 3863.26 3396.87"><defs><style>.cls-1{fill:url(#linear-gradient);}.cls-2{fill:url(#linear-gradient-2);}.cls-3{fill:url(#linear-gradient-3);}.cls-18,.cls-4{fill:#fff;}.cls-10,.cls-23,.cls-4{stroke:#1a1a1a;}.cls-10,.cls-12,.cls-23,.cls-4,.cls-7{stroke-linecap:round;stroke-linejoin:round;}.cls-12,.cls-4{stroke-width:2px;}.cls-5{fill:url(#linear-gradient-4);}.cls-6{fill:#d9d9d9;}.cls-10,.cls-12,.cls-23,.cls-7{fill:none;}.cls-7{stroke:#203560;}.cls-10,.cls-7{stroke-width:3px;}.cls-8{fill:#572658;}.cls-9{fill:#dbd2db;}.cls-11{fill:#102140;}.cls-12{stroke:#d18b0d;}.cls-13{fill:#d1334a;}.cls-14{fill:#fc9590;}.cls-15{fill:#db6767;}.cls-16{fill:#eb485c;}.cls-17{fill:#ef5164;}.cls-19{fill:#616e85;}.cls-20{fill:#5c6e8f;}.cls-21{fill:url(#linear-gradient-5);}.cls-22{clip-path:url(#clip-path);}.cls-23{stroke-dasharray:12;}.cls-24{fill:#ffde70;}.cls-25{fill:url(#linear-gradient-7);}.cls-26{fill:url(#linear-gradient-8);}.cls-27{fill:url(#linear-gradient-9);}</style><linearGradient id="linear-gradient" x1="2376.18" y1="1817.79" x2="3590.94" y2="1817.79" gradientUnits="userSpaceOnUse"><stop offset="0" stop-color="#68b2fc"/><stop offset="1" stop-color="#529bf7"/></linearGradient><linearGradient id="linear-gradient-2" x1="111.66" y1="1887.18" x2="3863.26" y2="1887.18" xlink:href="#linear-gradient"/><linearGradient id="linear-gradient-3" x1="159.99" y1="1588.38" x2="3545.51" y2="1588.38" gradientUnits="userSpaceOnUse"><stop offset="0" stop-color="#4085f0"/><stop offset="1" stop-color="#275dc9"/></linearGradient><linearGradient id="linear-gradient-4" x1="1789.31" y1="1209.67" x2="3331.54" y2="1209.67" gradientUnits="userSpaceOnUse"><stop offset="0" stop-color="#68b2fc"/><stop offset="1" stop-color="#ebf0f7"/></linearGradient><linearGradient id="linear-gradient-5" x1="2303.55" y1="1691.29" x2="3690.89" y2="1691.29" xlink:href="#linear-gradient-3"/><clipPath id="clip-path"><path class="cls-1" d="M3590.94,1232.31,3442.83,2367.39c-3.06,23.55-23,35.87-41,35.87a40,40,0,0,1-22.91-7.31l-984.83-675.12a40.81,40.81,0,0,1-17.82-35.77l9.23-199.76c45.63-61.27,86.35-77,115.35-80,75.15-7.91,102.75,65.87,229.31,96.14,51,12.22,129,30.87,194.17-7.39,68.3-40.08,67.41-110.34,135-125.74,47.29-10.8,89.93,14,94.32,16.62,50.79,30.51,40.51,75.08,81.34,101.72,64.7,42.19,169.18-18.31,175.67-22.18,72.29-43,45.47-118.58,118.36-188.65A252.18,252.18,0,0,1,3590.94,1232.31Z"/></clipPath><linearGradient id="linear-gradient-7" x1="3308.81" y1="319.12" x2="3466.77" y2="319.12" xlink:href="#linear-gradient-3"/><linearGradient id="linear-gradient-8" x1="0" y1="1032.15" x2="319.98" y2="1032.15" xlink:href="#linear-gradient"/><linearGradient id="linear-gradient-9" x1="1955.95" y1="3201.14" x2="2350.59" y2="3201.14" xlink:href="#linear-gradient"/></defs><g id="Layer_2" data-name="Layer 2"><g id="Layer_1-2" data-name="Layer 1"><path class="cls-2" d="M279.94,1566.15c-32.89,55.95-287.64,504.36-99.85,921,203.21,450.84,852.37,704,1497.84,454.94,182.92,93.8,554.36,251.49,1031.85,221.92,256.34-15.88,603-37.34,865.42-299.59,379.28-379.07,280-958.84,266.28-1031.94-139.72-746.54-925.82-1076-1009.66-1109.6C2049.46,409,1032,745,279.94,1566.15Z"/><path class="cls-3" d="M629.44,2509.31c-31.52-17.17-424.45-240.23-466-704.6-37.9-423.62,247.8-699.56,282.93-732.34C367.21,847.65,434.66,598.52,612.8,451c160.7-133.09,386.82-163,582.49-77.68,24.58-40.66,159.62-254.91,438.26-321.78,302.88-72.69,536.27,86.17,571.4,111,246.52-204.75,599.3-216.2,848.78-33.29,269.09,197.29,356.15,575.35,194.16,882.14,30.78,41,483.06,665.55,210.81,1348.17-178.69,448-558.84,643.6-665.71,693.5-513.4,239.72-1157.8,123.55-1658.72-282.95Z"/><polygon class="cls-4" points="2928.67 2979.44 2793 3053.01 1559.58 1902.06 1559.58 1807.76 2928.67 2979.44"/><path class="cls-5" d="M1807.37,1339.65s37.18-176.66,327.41-117.48,697-170.14,796.9-473.43S3161,697,3198,748.74s131.2-48.3,131.2-48.3,24.14,144.47-81.27,310.91c-294,366.17-907.95,716.15-907.95,716.15l-550.63,90.16Z"/><polygon class="cls-6" points="3053.73 129.21 1791.65 478.74 1759.36 1861.88 1852.75 1874.37 1874.87 498.15 3096.58 163.47 3053.73 129.21"/><line class="cls-7" x1="2185.32" y1="398.11" x2="2153.27" y2="1867.11"/><line class="cls-7" x1="2588.35" y1="281.78" x2="2588.35" y2="1782.52"/><line class="cls-7" x1="3031.54" y1="163.47" x2="3031.54" y2="1656.08"/><polygon class="cls-8" points="2928.67 2979.44 2793 3053.01 1559.58 1902.06 1559.58 1807.76 2928.67 2979.44"/><path class="cls-9" d="M3466.77,2338.75c-.86,2.25-1.69,4.48-2.54,6.71-1.82,4.7-3.66,9.37-5.53,14.07-178.7,448-558.82,643.59-665.7,693.48l135.67-73.57L1559.58,1807.76,2480.5,1663.5Z"/><path class="cls-10" d="M2738.14,2542.27s-2.47-112.73,125.12-38.63,262.58,135.13,264.43,29.71,38.84-149.22,66.57-130.09"/><polygon class="cls-11" points="2169.29 2026.12 2657.19 2404.51 2452.74 2464.18 1987.46 2072.76 2169.29 2026.12"/><line class="cls-12" x1="2153.27" y1="2056.22" x2="2583.11" y2="2397.97"/><line class="cls-12" x1="2107.4" y1="2074.27" x2="2537.24" y2="2416.02"/><line class="cls-12" x1="2061.54" y1="2092.32" x2="2491.38" y2="2434.07"/><line class="cls-12" x1="2567.39" y1="2370.61" x2="2440.72" y2="2420.54"/><line class="cls-12" x1="2521.69" y1="2333.57" x2="2395.02" y2="2383.5"/><line class="cls-12" x1="2476" y1="2296.53" x2="2349.33" y2="2346.46"/><line class="cls-12" x1="2430.3" y1="2259.49" x2="2303.63" y2="2309.42"/><line class="cls-12" x1="2384.6" y1="2222.44" x2="2257.93" y2="2272.38"/><line class="cls-12" x1="2338.91" y1="2185.4" x2="2212.24" y2="2235.33"/><line class="cls-12" x1="2293.21" y1="2148.36" x2="2166.54" y2="2198.29"/><line class="cls-12" x1="2247.51" y1="2111.32" x2="2120.84" y2="2161.25"/><line class="cls-12" x1="2201.82" y1="2074.27" x2="2075.15" y2="2124.21"/><path class="cls-13" d="M1538.86,2114.76c7.78-13,10.37-25.94,15.56-38.91,11.65-29.13,8.76-59.72,7.67-90.67-61-79.33-98.88-315-127-420.26-33.29-124.53-215.74-237.71-215.74-237.71s136.84,410.31,134.05,820.86c24.19,28.83,54.8,46.81,88.41,57.1C1487,2191.61,1517.34,2155.4,1538.86,2114.76Z"/><path class="cls-14" d="M2210.5,1981.63c-45.62-57.94-111-75.2-239.17-16s-290.8,60.46-373.39,45.67c-12.78-2.29-24.7-11.58-35.85-26.1,1.09,31,4,61.54-7.67,90.67-5.19,13-7.78,25.94-15.56,38.91a278.49,278.49,0,0,1-15.48,25.82c45.66,9.49,96.31-.57,143.1-8.06,119.76-21.77,223.19-103.43,351.12-76.21,2.72,2.72,8.16,5.44,8.16,10.89,46.27,2.72,59.88,46.27,95.27,68a42.74,42.74,0,0,0,7.53,3.37c.08-9.49-3.6-19.76-11.76-26.29-24.65-19.73-19.72-71.51-19.72-71.51s50.54,54.25,74,77.68,92.46,22.19,98.43,0S2256.11,2039.58,2210.5,1981.63Z"/><path class="cls-15" d="M2025.76,2067.2c0-5.45-5.44-8.17-8.16-10.89-127.93-27.22-231.36,54.44-351.12,76.21-46.79,7.49-97.44,17.55-143.1,8.06-20.05,29.55-46.26,54-81.59,64.59,103,31.54,234.27-9.2,296.55-32.44,82.59-30.82,223.13-91.23,261.35-87.53s49.31,27.12,87.53,64c25.57,24.64,41.18,8.64,41.34-10.55a42.74,42.74,0,0,1-7.53-3.37C2085.64,2113.47,2072,2069.92,2025.76,2067.2Z"/><path class="cls-14" d="M1382.87,1109.24l-68.61,243.62-210.5-173.22s68.42-89.7,64.72-146.1-33.29-302.37,93.38-380,259.81-29.59,315.29,25,8.32,269.08-17.57,330.11-51.78,127.61-137.76,111Z"/><path class="cls-15" d="M1292.07,1050.8s66.1,51.92,90.8,58.44c-15.6,50-17.53,60.67-17.53,60.67S1294.53,1110,1292.07,1050.8Z"/><path class="cls-11" d="M1257.24,939.22s-49.93-49-15.72-88.77,77.67-21.26,99.86,21.27c18.49,6.47,26.81-25,24-52.71s-12-125.75,31.43-139.62,83.22,5.55,129.45,52.71,132.21,50.85,157.18-25.9-16.65-111.88-16.65-111.88-1.84,21.4-47.15,18.56-70.27-48.15-116.5-46.3c0,0-90.61-104.49-231.15,5.55-83.21,2.77-180.29,118.36-168.27,210.82s24,208,79.51,221.92C1237.82,995.63,1257.24,939.22,1257.24,939.22Z"/><path class="cls-16" d="M1045.89,2774.88c-40.82-65.32-92.54-119.76-111.59-190.53-5.45-24.5-10.89-51.72-13.61-78.93,0-10.89-13.61-19.06-19.05-29.94-13.61-49-21.78-98-38.11-147-16.33-51.72-19-103.43-21.77-155.15-5.45-138.81-5.45-280.35,0-419.16,0-19.06,10.88-35.39,13.6-54.44,2.73-16.33-2.72-29.94,0-46.27,5.45-16.33,16.34-29.94,19.06-46.28,5.44-24.49,0-46.27,5.44-70.76,0-2.73,10.89-5.45,10.89-8.17,5.44-49,27.22-87.1,57.16-125.2,2.72-2.73,0-8.17,0-13.61,10.88-29.94,35.38-46.27,43.55-76.22,8.23-28.83,14.93-57.66,27.12-85.31-35.9-2.76-71,1.35-103.44,13.66-252.42,147-407.75,909.88-399.43,1106.83S804.19,2845,1064.92,2867.27c28.42,2.43,56.67,3.3,84.46,2.94l-.06-.07C1100.33,2851.09,1070.39,2813,1045.89,2774.88Z"/><path class="cls-17" d="M1480.68,1985.33c-8.63-77.67-45.61-299.59-112.18-482.06-53.15-145.66-207.83-264.41-349.92-275.34-12.19,27.65-18.89,56.48-27.12,85.31-8.17,30-32.67,46.28-43.55,76.22,0,5.44,2.72,10.88,0,13.61-29.94,38.1-51.72,76.21-57.16,125.2,0,2.72-10.89,5.44-10.89,8.17-5.44,24.49,0,46.27-5.44,70.76-2.72,16.34-13.61,30-19.06,46.28-2.72,16.33,2.73,29.94,0,46.27-2.72,19-13.6,35.38-13.6,54.44-5.45,138.81-5.45,280.35,0,419.16,2.72,51.72,5.44,103.43,21.77,155.15,16.33,49,24.5,98,38.11,147,5.44,10.88,19.05,19.05,19.05,29.94,2.72,27.21,8.16,54.43,13.61,78.93,19.05,70.77,70.77,125.21,111.59,190.53,24.5,38.11,54.44,76.21,103.43,95.26l.06.07c227.16-3,423.15-89,423.15-89C1578.52,2739.76,1489.31,2063,1480.68,1985.33Z"/><path class="cls-18" d="M920.69,1246.21s77.66-90.62,196.94-95.24c150.7,125.76,271.83,235.79,272.75,252.44s-19.42,128.53-31.44,124.83C1318.26,1458,1149.06,1207.38,920.69,1246.21Z"/><path class="cls-19" d="M3119.07,2331.77l-482-342.75-137.61,29.34c64.91,14.11,125.57,45.53,171.4,89.67,102.27,99.64,197,201.79,327.9,252.95l57.79-14Z"/><path class="cls-18" d="M2499.44,2018.36l-142.23,30.33,60.7,46.72,401.58,309.1L2998.74,2361c-130.92-51.16-225.63-153.31-327.9-252.95C2625,2063.89,2564.35,2032.47,2499.44,2018.36Z"/><polygon class="cls-20" points="2819.49 2404.51 2819.49 2464.18 2357.21 2108.35 2357.21 2048.69 2417.91 2095.41 2819.49 2404.51"/><polygon class="cls-11" points="3056.53 2346.94 2819.49 2404.51 2819.49 2464.18 3119.07 2391.43 3119.07 2331.77 3056.53 2346.94"/><path class="cls-19" d="M3837.63,989.31,3646.25,2456c-9.39,72.07-71.8,104.11-133.93,122.27-27.68,8.07-77.43,9.34-108-3.45,77.07,17.93,159.61-33.13,170.79-118.82L3766.53,989.31c9.65-74-39.61-139.33-107.47-155l23.69-2.67C3773.3,821.44,3849.41,898.93,3837.63,989.31Z"/><path class="cls-18" d="M3766.53,989.31,3575.15,2456c-11.18,85.69-93.72,136.75-170.79,118.82a140.54,140.54,0,0,1-47.78-21.17L2293.45,1824.86a140.43,140.43,0,0,1-60.86-122.27l27.73-600.07a140.38,140.38,0,0,1,124.54-133L3611.64,831.64a140.21,140.21,0,0,1,47.42,2.67C3726.92,850,3776.18,915.33,3766.53,989.31Z"/><path class="cls-4" d="M2303.67,1681.7l24.9-539A113.71,113.71,0,0,1,2429.45,1035l1135-127.56c73.35-8.24,135,54.52,125.44,127.72L3514.85,2376.78c-11,84.19-107,127.08-177,79.08L2353,1780.74A113.72,113.72,0,0,1,2303.67,1681.7Z"/><path class="cls-21" d="M2303.67,1681.7l24.9-539A113.71,113.71,0,0,1,2429.45,1035l1135-127.56c73.35-8.24,135,54.52,125.44,127.72L3514.85,2376.78c-11,84.19-107,127.08-177,79.08L2353,1780.74A113.72,113.72,0,0,1,2303.67,1681.7Z"/><path class="cls-1" d="M3590.94,1232.31,3442.83,2367.39c-3.06,23.55-23,35.87-41,35.87a40,40,0,0,1-22.91-7.31l-984.83-675.12a40.81,40.81,0,0,1-17.82-35.77l9.23-199.76c45.63-61.27,86.35-77,115.35-80,75.15-7.91,102.75,65.87,229.31,96.14,51,12.22,129,30.87,194.17-7.39,68.3-40.08,67.41-110.34,135-125.74,47.29-10.8,89.93,14,94.32,16.62,50.79,30.51,40.51,75.08,81.34,101.72,64.7,42.19,169.18-18.31,175.67-22.18,72.29-43,45.47-118.58,118.36-188.65A252.18,252.18,0,0,1,3590.94,1232.31Z"/><g class="cls-22"><line class="cls-23" x1="2453.66" y1="1352.55" x2="2428.7" y2="1760.48"/><line class="cls-23" x1="2542.08" y1="1339.52" x2="2506.85" y2="1816.3"/><line class="cls-23" x1="2630.5" y1="1326.5" x2="2585" y2="1872.13"/><line class="cls-23" x1="2718.91" y1="1313.47" x2="2663.15" y2="1927.95"/><line class="cls-23" x1="2807.33" y1="1300.45" x2="2741.29" y2="1983.78"/><line class="cls-23" x1="2895.75" y1="1287.42" x2="2819.44" y2="2039.61"/><line class="cls-23" x1="2984.16" y1="1274.4" x2="2897.59" y2="2095.43"/><line class="cls-23" x1="3072.58" y1="1261.37" x2="2975.74" y2="2151.26"/><line class="cls-23" x1="3161" y1="1248.35" x2="3053.89" y2="2207.08"/><line class="cls-23" x1="3249.41" y1="1235.32" x2="3132.04" y2="2262.91"/><line class="cls-23" x1="3337.83" y1="1222.3" x2="3210.18" y2="2318.73"/><line class="cls-23" x1="3426.24" y1="1209.27" x2="3288.33" y2="2374.56"/><line class="cls-23" x1="3514.66" y1="1196.25" x2="3366.48" y2="2430.39"/></g><path class="cls-24" d="M3617.9,1025.74l-27,206.57a252.18,252.18,0,0,0-62,43.48c-72.89,70.07-46.07,145.64-118.36,188.65-6.49,3.87-111,64.37-175.67,22.18-40.83-26.64-30.55-71.21-81.34-101.72-4.39-2.62-47-27.42-94.32-16.62-67.58,15.4-66.69,85.66-135,125.74-65.19,38.26-143.19,19.61-194.17,7.39-126.56-30.27-154.16-104.05-229.31-96.14-29,3-69.72,18.76-115.35,80l15.67-339.22a40.91,40.91,0,0,1,36.44-38.94l1135-127.53a38.12,38.12,0,0,1,4.85-.29,41.13,41.13,0,0,1,40.47,46.42Z"/><polygon class="cls-18" points="2456.44 1150.97 2726.42 1120.46 2726.42 1166.69 2456.44 1177.79 2456.44 1150.97"/><ellipse class="cls-18" cx="1900.36" cy="1798.35" rx="169.6" ry="63.53"/><path class="cls-11" d="M1860.59,1747.68c-58.5,6.43-101.23,26.67-101.23,50.67,0,29.17,63.13,52.81,141,52.81,53.44,0,99.93-11.14,123.84-27.55-35.79-.75-71.93-7.91-104.59-17.71C1892.92,1796.2,1859.78,1780,1860.59,1747.68Z"/><path class="cls-18" d="M2041.35,1798.35c0-29.17-63.12-52.82-141-52.82a364.08,364.08,0,0,0-39.77,2.15c-.81,32.31,32.33,48.52,59,58.22,32.66,9.8,68.8,17,104.59,17.71C2035.13,1816.1,2041.35,1807.5,2041.35,1798.35Z"/><path class="cls-18" d="M1908.15,1817.66h25.35c112.8-3.7,87.84-174.76,87.84-174.76l-113.19-5.39v-.16l-1.65.08-1.66-.08v.16l-67.32,3.2c-5.16,65.19-6.29,133.72,52.4,177h18.23Z"/><path class="cls-6" d="M1837.52,1640.71l-45.86,2.19s-25,171.06,87.83,174.76h10.43C1831.23,1774.43,1832.36,1705.9,1837.52,1640.71Z"/><ellipse class="cls-11" cx="1906.54" cy="1641.28" rx="114.88" ry="29.13"/><path class="cls-16" d="M1214.65,1854.89c13.61,46.28,43.55,84.38,68,125.21,27.21,46.27,51.71,89.82,84.37,130.65,5.45,10.89,13.61,19.05,21.78,27.22,2.72,5.44,0,13.61,2.72,19.05,69.8,79.11,103.84,184.05,175.15,255.36a425,425,0,0,0,10.58-59.91c-129.42-183-263.71-432.72-367.72-605.89C1208.9,1782.69,1203.37,1818.79,1214.65,1854.89Z"/><path class="cls-17" d="M1391.57,2157c-2.72-5.44,0-13.61-2.72-19.05-8.17-8.17-16.33-16.33-21.78-27.22-32.66-40.83-57.16-84.38-84.37-130.65-24.5-40.83-54.44-78.93-68-125.21-11.28-36.1-5.75-72.2-5.07-108.31-6.25-10.4-12.4-20.56-18.42-30.38,0,0-5.11-18.28-12.51-60.12,0,0-196-254.73-321.7-166.57-120.3,84.36-86.12,228.4-86.47,257.86,10.09,30.93,25.27,59.34,35.89,91.19C841.76,1939.27,871.7,2042.7,937,2138c5.44,10.88,19.05,13.61,24.5,24.49,2.72,8.17,5.44,16.33,10.88,24.5,43.55,46.27,81.66,92.54,122.49,138.81C1206.36,2443.22,1345.5,2517,1493.12,2563c11-15,21-30.58,30.17-46.16a379.56,379.56,0,0,0,43.43-104.48C1495.41,2341.07,1461.37,2236.13,1391.57,2157Z"/><path class="cls-13" d="M1094.89,2325.77C1054.06,2279.5,1016,2233.23,972.4,2187c-5.44-8.17-8.16-16.33-10.88-24.5-5.45-10.88-19.06-13.61-24.5-24.49-65.32-95.27-95.26-198.7-130.65-299.41-10.62-31.85-25.8-60.26-35.89-91.19-1.37,113.25,32.78,281.13,183.49,484.54,122.52,165.36,243,326.63,380.69,445.32,65.06-10.77,117.88-58.56,158.46-114.21C1345.5,2517,1206.36,2443.22,1094.89,2325.77Z"/><path class="cls-11" d="M2547.05,2498.22s91.86-72.13,191.09,0c37.28,28.66,40.06,69.35,40.06,69.35s-110,64.72-172.9,48.08S2547.05,2498.22,2547.05,2498.22Z"/><path class="cls-18" d="M2713.48,2507.46s28.53-.86,40.46,5.74c-10.42-16.6-19-19.12-19-19.12l-36.85.44Z"/><path class="cls-15" d="M2681.42,2482.19c-1.67-14-14.41-33.49-30.75-50.62-4.49,43.41-19.88,85.84-56,111.95-8.17,5.45-19.05,8.17-32.66,13.61s-16.34,24.5-29.94,27.22c-76.22,5.44-149.71,8.17-217.75,43.55-16.33,5.44-38.11,0-54.44,8.17-57.16,27.21-117,49-179.64,62.6-8.17,2.72-21.78,5.44-27.22,8.16-119.76,8.17-250.41,10.89-359.28-35.38-21.78-8.17-46.28-13.61-68-21.78-2.72-2.72-2.72-10.88-5.44-10.88-53.39-4.11-99-28.35-143.94-54-38,46-85.21,83.14-141.61,92.48,183.39,158.07,397.3,240.62,687.22,156.64C2346.41,2717.36,2385.24,2648,2421.3,2648c33.81,0,155.38-10.56,184.16-44.64a28,28,0,0,0,4.46-7.14S2684.2,2505.31,2681.42,2482.19Z"/><path class="cls-14" d="M1625.65,2649.67c21.77,8.17,46.27,13.61,68,21.78,108.87,46.27,239.52,43.55,359.28,35.38,5.44-2.72,19.05-5.44,27.22-8.16,62.6-13.61,122.48-35.39,179.64-62.6,16.33-8.17,38.11-2.73,54.44-8.17,68-35.38,141.53-38.11,217.75-43.55,13.6-2.72,16.33-21.77,29.94-27.22s24.49-8.16,32.66-13.61c36.16-26.11,51.55-68.54,56-111.95-10.68-11.19-22.89-21.36-34.58-28.31-29.59-17.56-127.91-14.54-141.78-5.29s-69.65,78.06-82.59,91.93c0,0-512.38,141.47-677.91,19.41-38.7-28.53-85.68-85-136.51-156.84-6,57.93-23.14,113.46-54,164.39a522.27,522.27,0,0,1-47,67.89c44.91,25.69,90.55,49.93,143.94,54C1622.93,2638.79,1622.93,2647,1625.65,2649.67Z"/><ellipse class="cls-25" cx="3387.79" cy="319.12" rx="78.98" ry="78.99"/><ellipse class="cls-26" cx="159.99" cy="1032.15" rx="159.99" ry="158.7"/><ellipse class="cls-27" cx="2153.27" cy="3201.14" rx="197.32" ry="195.74"/></g></g></svg>